<?xml version="1.0" encoding="utf-8"?>
<!-- Generator: Adobe Illustrator 24.1.0, SVG Export Plug-In . SVG Version: 6.00 Build 0)  -->
<svg version="1.1" id="Capa_1" xmlns="http://www.w3.org/2000/svg" xmlns:xlink="http://www.w3.org/1999/xlink" x="0px" y="0px"
	 viewBox="0 0 222 221" style="enable-background:new 0 0 222 221;" xml:space="preserve">
<style type="text/css">
	.st0{fill:#1B1464;}
</style>
<path class="st0" d="M110.58-0.19c-61.03,0-110.5,49.47-110.5,110.5c0,61.03,49.47,110.5,110.5,110.5s110.5-49.47,110.5-110.5
	C221.08,49.28,171.61-0.19,110.58-0.19z M70.05,158.69c-2.48,3.05-4.94,6.11-7.48,9.1c-0.81,0.95-1.5,1.99-2.33,2.92
	c-0.71,0.79-0.74,0.82-1.65,0.16c-4.88-4.14-9.28-8.73-13.03-13.94c-0.93-1.3-1.79-2.64-2.71-3.95c-0.93-1.65-1.97-3.23-2.81-4.93
	c-0.16-0.32-0.47-0.6-0.32-1.02c-2.26-4.53-4.19-9.19-5.55-14.07c-0.66-2.37-1.17-4.78-1.75-7.17c-0.63-0.91-0.56-2-0.74-3.02
	c-0.43-2.37-0.43-4.77-0.6-7.16c-0.03-0.4-0.05-0.81,0.09-1.21c-0.28-0.29-0.64-0.14-0.96-0.14c-3.49-0.01-6.98-0.02-10.46,0
	c-0.69,0-1.06,0-0.53-0.84c0.73-1.13,1.33-2.34,1.98-3.51c1.15-1.79,2.23-3.62,3.2-5.52c0-0.85,0.63-1.39,0.99-2.07
	c1.08-2.06,2.38-4,3.47-6.06c0.23-0.44,0.44-0.92,0.92-1.19c2.57-4.41,5.13-8.81,7.7-13.22c0.85-1.46,1.69-2.93,2.63-4.55
	c0.9,1.56,1.72,3.01,2.57,4.44c1.47,2.47,2.78,5.03,4.38,7.41c0.94,1.03,1.49,2.3,2.19,3.48c0.95,1.59,1.86,3.2,2.78,4.81
	c0.18,0.32,0.37,0.65,0.36,1.04c1.93,3.37,3.85,6.74,5.78,10.1c1.05,1.84,2.11,3.68,3.18,5.53c-0.34,0.24-0.68,0.13-1,0.13
	c-3.5,0.01-6.99,0.03-10.49-0.01c-0.64-0.01-0.79,0.15-0.76,0.78c0.26,5.05,1.18,9.98,2.71,14.8c0.58,1.83,1.25,3.63,2.05,5.37
	c0.36,0.19,0.5,0.54,0.64,0.88c1.19,2.74,2.64,5.34,4.32,7.81c2.82,4.39,6.17,8.32,10.11,11.75c0.31,0.27,0.59,0.56,0.89,0.84
	C70.93,157.48,70.97,157.57,70.05,158.69z M76.66,58.56c-0.57,0.75-1.4,1.17-2.13,1.71c-3.82,2.8-7.25,6.01-10.35,9.6
	c-0.73,0.84-0.91,0.89-1.75,0.21c-2.13-1.69-4.22-3.41-6.31-5.14c-0.21-0.18-0.37-0.39-0.48-0.65c-0.99-0.86-1.96-1.74-3.06-2.47
	c-1.16-0.47-1.96-1.42-2.89-2.19c-0.39-0.33-0.15-0.67,0.09-0.97c0.75-0.96,1.53-1.9,2.37-2.78c3.42-3.58,6.99-7,10.98-9.95
	c1.36-1.01,2.79-1.92,4.19-2.88c0.22-0.15,0.46-0.29,0.75-0.25c2.94-1.72,5.89-3.43,9-4.82c4.81-2.16,9.75-3.92,14.92-5
	c0.06-0.01,0.11-0.08,0.16-0.12c0.3-0.32,0.69-0.42,1.09-0.5c3.89-0.77,7.79-1.48,11.78-1.45c1.22,0.01,1.35-0.11,1.31-1.36
	c-0.1-3.18,0.22-6.36-0.01-9.54c-0.04-0.5-0.07-1.03,0.3-1.45c0.07,0,0.14,0,0.2,0c1.16,0.56,2.29,1.19,3.4,1.84
	c2.14,1.25,4.29,2.48,6.44,3.71c1.96,1.2,3.99,2.28,5.97,3.45c2.48,1.44,4.98,2.87,7.47,4.31c0.57,0.33,1.26,0.53,1.61,1.17
	c2.94,1.72,5.89,3.43,8.83,5.15c0.93,0.54,1.87,1.09,2.94,1.72c-1.49,0.88-2.88,1.71-4.29,2.52c-7.55,4.36-15.1,8.71-22.65,13.06
	c-3.31,1.9-6.62,3.8-9.93,5.69c-0.18-0.32-0.09-0.66-0.1-0.99c-0.01-3.41,0-6.82-0.01-10.22c0-0.33,0.1-0.68-0.11-0.99
	c-3.61-0.02-7.14,0.55-10.64,1.35c-6.57,1.5-12.69,4.08-18.38,7.7C77.15,58.2,76.91,58.39,76.66,58.56z M171.25,162
	c-0.65,0.87-1.36,1.69-2.1,2.49c-4.51,4.87-9.45,9.25-15.04,12.85c-0.36,0.23-0.69,0.57-1.18,0.53c-3.91,2.32-7.9,4.5-12.15,6.17
	c-3.8,1.5-7.66,2.81-11.67,3.63c-0.09,0.02-0.17,0.09-0.26,0.14c-2.68,0.49-5.35,1.08-8.07,1.33c-2.06,0.19-4.13,0.36-6.19,0.54
	c-0.3,0.32-0.13,0.71-0.14,1.06c-0.01,3.7-0.01,7.39-0.01,11.32c-5.35-3.07-10.56-6.07-15.77-9.07c-0.73,0.01-1.25-0.48-1.83-0.81
	c-2.27-1.29-4.54-2.57-6.78-3.91c-0.29-0.17-0.6-0.32-0.77-0.64c-2.82-1.66-5.64-3.31-8.47-4.97c-1.07-0.62-2.14-1.24-3.32-1.93
	c2.16-1.24,4.2-2.42,6.25-3.59c10.21-5.88,20.42-11.77,30.63-17.65c0.2,0.31,0.1,0.66,0.1,0.99c0.01,3.41,0,6.82,0.01,10.22
	c0,0.33-0.1,0.68,0.11,0.99c3.56-0.05,7.05-0.55,10.52-1.34c6.65-1.51,12.84-4.1,18.58-7.77c0.23-0.15,0.44-0.31,0.66-0.47
	c0.2-0.42,0.6-0.64,0.96-0.89c3.42-2.36,6.55-5.06,9.41-8.07c0.79-0.84,1.52-1.73,2.29-2.59c0.37-0.41,0.78-0.58,1.24-0.21
	c2.34,1.85,4.69,3.7,6.92,5.68c0.1,0.09,0.13,0.24,0.2,0.35c1.02,0.82,2.04,1.65,3.06,2.47c1.18,0.43,1.95,1.43,2.9,2.16
	C171.71,161.31,171.49,161.68,171.25,162z M195.7,118.26c-1.21,2.19-2.61,4.26-3.73,6.5c-0.17,0.34-0.38,0.65-0.73,0.82
	c-2.49,4.28-4.99,8.56-7.48,12.85c-0.93,1.6-1.84,3.2-2.83,4.92c-1.43-2.47-2.78-4.84-4.17-7.18c-0.88-1.48-1.61-3.03-2.63-4.42
	c-0.84-0.73-1.19-1.78-1.74-2.7c-1.17-1.92-2.24-3.92-3.41-5.85c-0.19-0.32-0.36-0.65-0.37-1.03c-1.63-2.88-3.25-5.77-4.9-8.64
	c-1.34-2.34-2.7-4.66-4.14-7.13c1.93,0,3.72,0,5.5,0c2,0,4.01-0.03,6.01,0.02c0.65,0.01,0.87-0.1,0.83-0.82
	c-0.28-5.16-1.23-10.19-2.83-15.1c-1.57-4.81-3.74-9.33-6.47-13.58c-0.07-0.11-0.18-0.19-0.28-0.29c-0.75-0.66-1.22-1.53-1.8-2.32
	c-2.78-3.8-5.96-7.21-9.53-10.28c-0.89-0.76-0.93-0.93-0.21-1.83c2.54-3.18,5.12-6.33,7.74-9.44c0.72-0.85,1.34-1.78,2.07-2.61
	c0.91-1.03,0.94-1.06,2.03-0.23c0.14,0.1,0.27,0.21,0.39,0.33c1.82,1.67,3.61,3.37,5.35,5.12c3.72,3.74,6.87,7.93,9.77,12.32
	c0.98,1.7,2.02,3.38,2.94,5.12c0.21,0.39,0.46,0.75,0.41,1.23c2.15,4.42,4.02,8.95,5.34,13.69c0.66,2.36,1.17,4.77,1.74,7.15
	c0.72,1.07,0.59,2.34,0.81,3.52c0.44,2.4,0.4,4.84,0.56,7.26c0.01,0.2-0.01,0.41-0.09,0.6c0.31,0.32,0.71,0.14,1.05,0.14
	c3.7,0.02,7.4,0.01,11.28,0.01c-1.91,3.37-3.75,6.61-5.59,9.85C196.62,117.07,196.05,117.62,195.7,118.26z"/>
</svg>
