<?xml version="1.0" encoding="utf-8"?>
<!-- Generator: Adobe Illustrator 24.1.0, SVG Export Plug-In . SVG Version: 6.00 Build 0)  -->
<svg version="1.1" id="Capa_1" xmlns="http://www.w3.org/2000/svg" xmlns:xlink="http://www.w3.org/1999/xlink" x="0px" y="0px"
	 viewBox="0 0 222 221" style="enable-background:new 0 0 222 221;" xml:space="preserve">
<style type="text/css">
	.st0{fill:#1B1464;}
</style>
<g>
	<path class="st0" d="M111.62-0.19c-61.03,0-110.5,49.47-110.5,110.5c0,61.03,49.47,110.5,110.5,110.5s110.5-49.47,110.5-110.5
		C222.12,49.28,172.65-0.19,111.62-0.19z M182.54,151.64c2.31,8.43,4.54,16.88,6.81,25.32c1.47,5.44-2.25,9.27-7.71,7.85
		c-8.07-2.1-16.12-4.26-24.16-6.45c-0.94-0.26-1.62-0.15-2.42,0.36c-39.83,25.1-91.94,11.69-114.66-29.54
		c-6.92-12.55-10.09-26.06-9.87-42.47c0.3-34.74,26.83-67.4,62.99-75.48c42.85-9.57,85.5,16.24,96.46,58.52
		c5.34,20.59,2.81,40.33-7.09,59.12C182.4,149.81,182.25,150.59,182.54,151.64z"/>
	<path class="st0" d="M181.58,95.45c-7.96-37.53-44-62.02-81.84-55.77c-38.05,6.28-64.78,42.67-59.05,80.61
		c3.11,20.61,13.31,36.97,30.35,48.95c23.45,16.49,55.82,16.91,79.58,0.95c2.73-1.83,5.03-2.39,8.22-1.39
		c6.45,2.03,13.05,3.6,19.88,5.44c-0.24-1-0.38-1.68-0.56-2.34c-1.84-6.88-3.63-13.78-5.58-20.63c-0.51-1.78-0.23-3.14,0.67-4.69
		C182.53,130.6,185.41,113.5,181.58,95.45z M102.52,70.35c0.84-3.47,2.56-6.3,6.17-7.31c3.76-1.06,7.32-0.62,10.22,2.35
		c2.45,3.11,2.96,6.71,2.6,10.5c-0.93,9.67-2.75,19.21-4.14,28.82c-0.47,3.26-0.98,6.51-1.47,9.76c-0.64,4.1-1.35,8.19-1.88,12.3
		c-0.2,1.52-0.86,1.82-2.25,1.8c-1.35-0.02-2.13-0.21-2.27-1.78c-0.26-2.81-0.71-5.61-1.08-8.41c0,0,0,0,0,0
		c-0.31-1.78-0.61-3.55-0.92-5.33c0,0,0,0,0,0c0,0,0,0,0,0c-0.04-0.44-0.08-0.88-0.12-1.32c0,0-0.23-1.2-0.26-1.82
		c-1.18-7.61-2.38-15.21-3.52-22.82c-0.47-3.15-0.87-6.31-1.24-9.47C102.06,75.19,101.94,72.76,102.52,70.35z M111.95,157.99
		c-5.87-0.04-10.46-4.79-10.4-10.75c0.06-5.75,4.88-10.48,10.61-10.44c5.97,0.05,10.62,4.81,10.58,10.81
		C122.69,153.46,117.94,158.03,111.95,157.99z"/>
</g>
</svg>
