<?xml version="1.0" encoding="utf-8"?>
<!-- Generator: Adobe Illustrator 24.1.0, SVG Export Plug-In . SVG Version: 6.00 Build 0)  -->
<svg version="1.1" id="Capa_1" xmlns="http://www.w3.org/2000/svg" xmlns:xlink="http://www.w3.org/1999/xlink" x="0px" y="0px"
	 viewBox="0 0 222 221" style="enable-background:new 0 0 222 221;" xml:space="preserve">
<style type="text/css">
	.st0{fill:#1B1464;}
</style>
<g>
	<path class="st0" d="M168.58,76.31c-9.57,9.48-40.48,39.48-40.66,39.7c-0.87,1.73-0.56,2.25,1.31,2.17
		c0.26-0.01,0.49-0.03,0.7,0.14c2.04,1.26,2.21,1.84,1.48,5.11c-0.13,0.59-0.68,1.29-0.01,1.78c0.76,0.55,1.03-0.52,1.6-0.68
		c0.85-0.44,27.54-27.63,35.22-35.36c3.39-3.42,4.28-7.53,3.01-12.12C170.61,74.78,170.21,74.7,168.58,76.31z"/>
	<path class="st0" d="M122.05,123.82c0.01,0,0.01,0,0.02,0c0,0,0-0.01-0.01-0.01C122.05,123.81,122.05,123.81,122.05,123.82z"/>
	<path class="st0" d="M122.32,123.81c-1.37,0.23-2.75,0.23-4.13,0c-0.78-0.2-1.28-0.7-1.51-1.48c-0.26-1.78-0.19-3.57-0.07-5.34
		c0.16-2.29-0.24-2.69-2.57-2.19c-0.76,0.03-1.52,0.12-2.28,0.08c-1.44-0.07-2.8-0.06-3.49,1.53c-0.6,1.01-1.21,2.02-1.81,3.03
		c-0.05,0.02-0.1,0.04-0.15,0.05c0.03,0.02,0.05,0.04,0.08,0.05c0,0,0,0,0,0c-0.19,0.78-0.71,1.35-1.24,1.91
		c-2.64,4.33-5.22,8.69-7.94,12.97c-0.81,1.27-0.97,1.97,0.56,2.8c2.37,1.29,4.15,3.27,5.18,5.79c0.52,1.27,1.06,1.28,2.14,0.67
		c5.53-3.13,11.1-6.21,16.67-9.28c0.73-0.4,1.13-0.89,1.29-1.74c0.42-2.21,0.96-4.39,1.46-6.58
		C124.82,123.79,124.49,123.45,122.32,123.81z"/>
	<path class="st0" d="M130.64,105.48c0.36-0.38,0.73-0.76,1.09-1.15c1.17-1.44,2.4-2.82,3.91-3.93c0,0,0,0,0,0
		c0.39-0.42,0.77-0.86,1.18-1.27c9.1-9.04,18.2-18.08,27.3-27.12c1.74-1.73,1.68-2.08-0.72-2.76c-5.03-1.43-9.21,0.06-12.84,3.68
		c-11.26,11.25-22.56,22.46-33.85,33.69c-0.27,0.27-0.56,0.54-0.81,0.83c-0.63,0.77-0.34,1.18,0.56,1.22
		c0.96,0.04,1.93-0.02,2.9,0.02c1.31,0.06,2.38,0.53,2.84,1.89c0.53,0.4,0.25,1.04,0.44,1.54v0c0.11,0.13,0.22,0.26,0.34,0.38
		c2.16-1.29,3.53-3.44,5.46-4.98C129.07,106.75,129.75,106,130.64,105.48z"/>
	<path class="st0" d="M110.58,0.4C49.55,0.4,0.08,49.87,0.08,110.9s49.47,110.5,110.5,110.5s110.5-49.47,110.5-110.5
		S171.61,0.4,110.58,0.4z M84.09,159.56c-1.15,1.63-2.22,3.32-3.45,4.89c-1.62,2.06-3.88,1.84-5.19-0.38
		c-0.48-0.82-0.98-1.63-1.8-2.99c-0.29,3.22-0.56,5.86-0.74,8.5c-0.09,1.37-0.62,1.99-2.07,2.21c-1.55,0.23-2.15-0.22-2.58-1.68
		c-1.17-3.99-2.51-7.92-3.9-12.24c-1.86,3.18-3.59,6.04-5.2,8.95c-0.51,0.92-1.09,1.23-2.12,1.23c-8.18-0.04-16.36-0.08-24.55,0.01
		c-2.72,0.03-1.48-2.04-1.8-3.16c-0.43-1.54,1.01-0.94,1.64-0.95c7.28-0.12,14.56-0.21,21.84-0.23c1.29,0,2.09-0.32,2.73-1.54
		c1.61-3.08,3.49-6.02,5.07-9.11c0.94-1.84,2.58-1.65,4.11-1.84c0.77-0.1,0.82,0.69,0.99,1.22c0.8,2.43,1.58,4.87,2.74,7.3
		c0.14-2.3,0.31-4.6,0.42-6.9c0.07-1.3-0.05-2.47,1.83-2.79c1.81-0.3,2.37,0.5,2.89,1.94c0.98,2.71,2.11,5.36,3.29,8.31
		c1.15-1.63,2.13-3.04,3.15-4.49c0.8,0.97,1.44,2.05,2.61,2.56C84.79,158.72,84.38,159.14,84.09,159.56z M188.57,76.39
		c-0.88,1.74-2.02,3.28-3.4,4.66c-11.25,11.25-22.5,22.5-33.75,33.74c-0.18,0.18-0.4,0.3-0.6,0.45c-2.45,2.71-4.99,5.32-7.75,7.73
		c0,0,0,0,0,0c-5.16,5.22-10.3,10.44-15.48,15.63c-0.48,0.48-1.21,0.72-1.85,1c-12.31,5.25-24.64,10.48-36.95,15.74
		c-1.5,0.64-2.88,0.74-4.08-0.53c-1.21-1.29-0.93-2.66-0.21-4.1c4.42-8.94,8.81-17.9,13.21-26.85c0.53-1.08,1.06-2.16,1.59-3.24
		c0.4-0.77,0.8-1.54,1.2-2.31c0,0,0,0,0,0c0,0,0,0,0,0c0.9-1.81,1.81-3.61,2.71-5.42c0,0,0,0,0,0c0.51-1.54,1.27-2.9,2.45-4.07
		c17.96-17.83,35.9-35.7,53.86-53.54c6.28-6.24,16.23-7.1,23.21-2.07C190.24,58.64,192.67,68.26,188.57,76.39z"/>
	<path class="st0" d="M173.11,56.18c-4.57,0.01-7.65,1.66-10.18,4.48c-0.41,0.46-1.22,0.76-1.03,1.51c0.2,0.78,1.07,0.59,1.65,0.73
		c6.91,1.63,11.45,5.81,13.69,12.55c0.35,1.06,0.06,2.84,1.1,3.05c1.25,0.26,2.02-1.37,2.84-2.3c3.33-3.78,4.14-8.13,2.15-12.75
		C181.29,58.74,177.47,56.45,173.11,56.18z"/>
</g>
</svg>
