<?xml version="1.0" encoding="utf-8"?>
<!-- Generator: Adobe Illustrator 24.1.0, SVG Export Plug-In . SVG Version: 6.00 Build 0)  -->
<svg version="1.1" id="Capa_1" xmlns="http://www.w3.org/2000/svg" xmlns:xlink="http://www.w3.org/1999/xlink" x="0px" y="0px"
	 viewBox="0 0 222 221" style="enable-background:new 0 0 222 221;" xml:space="preserve">
<style type="text/css">
	.st0{fill:#1B1464;}
</style>
<g>
	<path class="st0" d="M106.07,44.52c-3.79-3.67-8.38-5.3-13.59-4.48c-5.82,0.92-9.75,4.36-11.83,9.86
		c-0.37,0.97-0.85,1.52-1.89,1.78c-3.72,0.93-7,2.73-9.88,5.25c-6.35,5.56-11.09,15.69-6.74,25.39c2.6,5.79,6.41,10.34,12.57,12.54
		c2.77,0.99,5.6,0.99,8.49,0.6c2.21-0.3,4.11,1.28,4.35,3.39c0.27,2.31-1.2,4.2-3.46,4.57c-5.25,0.85-10.28,0.19-15.04-2.22
		c-0.72-0.37-1.08-0.19-1.5,0.39c-1.88,2.56-2.52,5.38-1.76,8.47c1.28,5.23,6.81,8.48,12.13,7.02c2.3-0.63,4.35,0.67,4.94,2.88
		c0.58,2.2-0.63,4.21-2.95,4.89c-1.39,0.41-2.81,0.62-4.24,0.61c-7.1-0.07-12.62-3.06-16.03-9.31c-3.41-6.25-2.95-12.51,0.85-18.51
		c1.08-1.71,1.13-1.69-0.24-3.25c-1.92-2.17-3.44-4.61-4.79-7.19c-7.39,6.52-10.81,16.06-9.65,25.72
		c0.68,5.62,2.86,10.65,6.52,14.98c0.88,1.04,0.87,1.86,0.42,3.04c-3.06,8-2.3,15.66,2.28,22.89c1.82,2.86,4.18,5.21,7.14,7.09
		c0.03-0.33,0.04-0.53,0.06-0.72c1.16-11.27,8.19-19.17,19.21-21.53c1.27-0.27,2.42-0.75,3.47-1.47c1.88-1.3,3.14-3.06,3.87-5.23
		c0.75-2.23,2.9-3.33,5.09-2.68c2.04,0.61,3.17,2.8,2.6,5.01c-0.3,1.16-0.78,2.24-1.33,3.29c-0.36,0.68-1.19,1.4-1.08,1.98
		c0.13,0.72,1.34,0.7,1.97,1.18c0.1,0.07,0.21,0.13,0.31,0.2c1.68,1.23,2.18,3.47,1.17,5.26c-0.99,1.76-3.27,2.6-5.1,1.68
		c-3.31-1.67-6.64-1.93-10.24-1.04c-4.96,1.24-8.47,4.09-10.6,8.69c-2.19,4.72-1.29,9.36,0.59,13.89
		c3.73,8.96,13.91,13.74,23.25,11.04c4.2-1.21,7.53-3.65,10.29-6.96c1.93-2.27,2.11-4.93,2.11-7.79
		c-0.07-31.63-0.06-63.26-0.07-94.89c0-0.45-0.02-0.9-0.03-1.35c-3.02,1.67-6.23,2.69-9.71,2.64c-2.02-0.03-3.59-1.45-3.88-3.42
		c-0.29-1.99,0.91-3.85,2.82-4.47c0.77-0.25,1.54-0.17,2.31-0.23c4.61-0.37,9.16-2.91,9-9.12c-0.04-1.64-0.02-3.28,0.02-4.92
		C108.33,47.81,107.57,45.97,106.07,44.52z"/>
	<path class="st0" d="M141.4,133.04c4.68,2.96,9.76,3.66,15.1,2.79c5.37-0.87,10.16-3.13,13.83-7.14
		c8.96-9.78,9.81-25.28,2.24-36.19c-2.59-3.74-5.9-6.68-9.75-9.03c-0.5-0.3-0.86-0.56-0.69-1.24c0.58-2.32,0.75-4.69,0.86-7.06
		c0.31-6.45-1.31-12.26-5.85-17.03c-3.15-3.31-7.03-4.28-10.69-2.78c-3.94,1.62-6.85,5.95-6.78,10.12c0.05,2.81,1.2,5.13,3.2,7.08
		c1.35,1.32,1.69,3.06,0.99,4.61c-1.22,2.69-4.5,3.18-6.76,1.01c-8.78-8.42-6.74-22.92,4.08-28.64c0.97-0.51,1.06-0.84,0.55-1.79
		c-5.18-9.57-18.52-10.72-25.21-2.15c-0.5,0.65-0.73,1.29-0.73,2.12c0.02,14.76,0.02,29.53,0.02,44.29c0,0.34-0.11,0.71,0.14,1.07
		c0.22-0.11,0.4-0.19,0.57-0.28c9.08-4.97,19.27-2.27,24.6,6.57c0.48,0.8,0.84,0.46,1.35,0.22c3.87-1.88,7.9-2.28,12.08-1.35
		c1.07,0.24,1.97,0.8,2.54,1.78c0.9,1.53,0.86,3.06-0.15,4.5c-1.1,1.56-2.69,1.9-4.47,1.54c-3.13-0.64-5.92,0.08-8.42,2.04
		c-3.5,2.74-7.62,1.47-9.05-2.78c-1.01-3.01-2.96-5.16-5.93-6.31c-4.27-1.65-8.48-0.24-11.77,3.88c-1.83,2.92-1.52,6.21-1.52,9.42
		c0,18.89,0.04,37.77,0.06,56.66c0,0.53-0.02,1.06-0.03,1.6c0.19,0.32,0.38,0.63,0.56,0.95c4.15,7.02,11.82,10.65,19.33,9.51
		c8.83-1.35,14.4-6.56,16.6-15.24c0.25-0.98,0.73-1.37,1.65-1.65c9.11-2.71,15.06-8.6,17.61-17.79c0.76-2.75,1.01-5.57,0.64-8.43
		c-0.16,0.01-0.21,0-0.24,0.02c-0.34,0.23-0.67,0.47-1.01,0.69c-8.09,5.15-16.77,6.95-26.17,4.59c-0.79-0.2-0.82,0.07-0.93,0.7
		c-1.48,7.96-9.19,12.97-16.76,10.9c-1.91-0.52-3.11-2.27-2.93-4.28c0.17-1.88,1.7-3.41,3.61-3.59c0.62-0.06,1.22,0.06,1.83,0.16
		c3.57,0.56,6.6-2.28,6.18-5.77c-0.1-0.82-0.42-1.58-0.75-2.33c-0.86-1.96-0.43-3.94,1.14-5.37
		C137.59,132.33,139.72,131.98,141.4,133.04z"/>
	<path class="st0" d="M111.62,0C50.6,0,1.12,49.47,1.12,110.5S50.6,221,111.62,221s110.5-49.47,110.5-110.5S172.65,0,111.62,0z
		 M185.64,112.01c-0.39,6.41-2.47,12.32-6.01,17.7c-0.43,0.65-0.55,1.21-0.34,2.03c4.1,16.34-3.8,32.2-19.34,38.84
		c-0.54,0.23-0.82,0.57-1.02,1.09c-7.52,19.18-32.29,23.71-46.2,8.44c-1.08-1.18-1.08-1.18-2.2,0.04
		c-13.9,15.19-38.6,10.68-46.13-8.45c-0.25-0.63-0.64-0.93-1.25-1.2c-10.88-4.86-17.57-13.12-19.79-24.84
		c-0.89-4.72-0.6-9.48,0.69-14.13c0.19-0.69,0.06-1.14-0.3-1.68c-9.36-14.23-8.07-32.76,3.18-45.57c1.44-1.63,3-3.15,4.73-4.46
		c0.6-0.45,0.76-0.9,0.72-1.64c-0.84-14.53,6.73-27.05,19.84-32.74c1.31-0.57,2.15-1.32,2.89-2.55
		c7.67-12.71,25.13-14.93,35.83-4.61c0.49,0.47,0.72,0.64,1.33,0.06c11.61-11.11,30.02-7.76,37.07,6.75
		c0.55,1.13,1.1,1.66,2.47,1.77c3.88,0.31,7.01,2.31,9.75,4.97c6.39,6.19,9.46,13.94,9.42,24.24c-0.87,2.21,0.67,3.71,2.53,5.43
		C182.41,89.7,186.38,99.98,185.64,112.01z"/>
</g>
</svg>
