<?xml version="1.0" encoding="utf-8"?>
<!-- Generator: Adobe Illustrator 24.1.0, SVG Export Plug-In . SVG Version: 6.00 Build 0)  -->
<svg version="1.1" id="Capa_1" xmlns="http://www.w3.org/2000/svg" xmlns:xlink="http://www.w3.org/1999/xlink" x="0px" y="0px"
	 viewBox="0 0 222 221" style="enable-background:new 0 0 222 221;" xml:space="preserve">
<style type="text/css">
	.st0{fill:#1B1464;}
</style>
<g>
	<path class="st0" d="M91.61,104.68c1.5-0.21,2.76-1.55,3.11-3.21c0.24-1.17,0.18-2.34,0.24-3.51c0.02-0.06,0.04-0.12,0.06-0.18
		c0.33-1.09,0.66-2.18,0.99-3.28c0.15-0.36,0.3-0.72,0.44-1.08c0.73-1.13,1.45-2.25,2.18-3.38h0c0.78-0.76,1.56-1.51,2.34-2.27
		c1.01-0.67,2.01-1.34,3.02-2.01c0.28-0.11,0.56-0.23,0.84-0.34c1-0.34,2.01-0.69,3.01-1.03c0.04-0.01,0.08-0.02,0.11-0.04
		c1.23,0.09,2.41-0.34,3.64-0.31c2.14,0.05,3.89-1.7,3.94-3.76c0.06-2.16-1.62-3.86-3.91-3.9c-2.4-0.04-4.76,0.25-7.07,0.95
		c-3.06,0.91-5.85,2.32-8.25,4.46c-1.36,1.07-2.62,2.25-3.66,3.65c-2.1,2.31-3.54,4.99-4.45,7.96c-0.56,1.59-0.83,3.23-0.99,4.9
		c-0.14,1.41-0.56,2.84,0.31,4.18C88.43,104.25,89.72,104.94,91.61,104.68z M108.8,81.23C108.8,81.24,108.8,81.24,108.8,81.23
		C108.8,81.24,108.8,81.24,108.8,81.23C108.81,81.24,108.81,81.23,108.8,81.23C108.8,81.23,108.8,81.23,108.8,81.23
		C108.8,81.23,108.8,81.23,108.8,81.23C108.81,81.23,108.81,81.23,108.8,81.23c0.01,0,0.01,0,0.02,0c-0.01,0.01-0.01,0.01-0.02,0.02
		C108.8,81.25,108.8,81.24,108.8,81.23C108.8,81.24,108.8,81.24,108.8,81.23C108.8,81.24,108.8,81.24,108.8,81.23z"/>
	<path class="st0" d="M111.62,0.81c-61.03,0-110.5,49.47-110.5,110.5s49.47,110.5,110.5,110.5s110.5-49.47,110.5-110.5
		S172.65,0.81,111.62,0.81z M181.69,118.53c-0.25,0.41-0.5,0.83-0.76,1.23c-0.77,1.14-1.54,2.28-2.35,3.4
		c-2.48,3.43-5.27,6.62-8.23,9.63c-3.46,3.51-7.22,6.72-11.31,9.51c-6.32,4.54-13.14,8.18-20.44,10.9c-0.19,0.08-0.39,0.14-0.59,0.2
		c-1.23,0.53-2.56,0.76-3.79,1.27c-1.51,0.56-3.1,0.87-4.67,1.23c-1.06,0.3-2.14,0.5-3.25,0.45c-2.65,0.23-5.25,0.82-7.9,1.01
		c-1.02,0.07-2.05,0.04-3.07,0.19c-0.53,0.44-1.09,0.32-1.7,0.17c-0.58-0.14-1.18-0.18-1.76,0.04l-0.09-0.03l-0.09,0.03
		c-1.23-0.41-2.51,0.19-3.74-0.21c-4.18-0.1-8.28-0.86-12.4-1.48c-1.02-0.03-2.07,0.02-2.89-0.76c-1.79-0.49-3.58-0.98-5.37-1.47
		c-2.75-0.46-5.24-1.64-7.75-2.76c-3.08-1.37-6.05-2.96-8.97-4.65c-2.83-1.74-5.6-3.57-8.28-5.53c-0.33-0.22-0.62-0.47-0.92-0.73
		c-1.12-0.93-2.3-1.77-3.36-2.77c-0.5-0.38-1.01-0.75-1.45-1.21c-0.88-0.9-1.74-1.82-2.78-2.54c-0.47-0.58-0.89-1.21-1.48-1.7
		c-0.92-0.98-1.94-1.85-2.8-2.88c-0.44-0.78-1.18-1.3-1.72-2c-0.86-1.09-1.75-2.15-2.54-3.3c-0.17-0.2-0.32-0.41-0.47-0.63
		c-1.91-2.47-3.6-5.09-5.07-7.85c-0.61-1.39-0.9-2.85-0.9-4.37c0.04-0.97,0.27-1.9,0.51-2.83c0.84-2.38,2.3-4.42,3.71-6.46
		c1.78-2.59,3.62-5.15,5.78-7.46c0.23-0.23,0.45-0.47,0.63-0.74c1-1.3,2.29-2.33,3.38-3.55c0.25-0.29,0.44-0.63,0.71-0.91
		c1.44-0.96,2.44-2.42,3.83-3.44c0.27-0.18,0.51-0.38,0.74-0.61c3.93-3.43,8.18-6.42,12.67-9.08c2.8-1.62,5.64-3.17,8.6-4.47
		c2.72-1.28,5.54-2.29,8.38-3.24c1.45-0.5,2.9-1,4.41-1.29c1.39-0.3,2.75-0.73,4.15-0.98c1.33-0.32,2.69-0.47,4.06-0.41
		c4.91-0.5,9.82-0.83,14.77-0.62c4.66,0.2,9.25,0.82,13.79,1.84c0.36,0.08,0.74,0.11,1.1,0.17c1.31,0.05,2.58,0.25,3.81,0.74
		c3,0.96,5.96,2.05,8.89,3.22c1.13,0.62,2.28,1.19,3.49,1.64c0.3,0.14,0.6,0.29,0.9,0.44c1.17,0.6,2.25,1.36,3.47,1.87
		c4.67,2.68,9.18,5.57,13.27,9.08c5.24,4.28,9.92,9.11,13.98,14.53c2.32,3.07,4.62,6.15,6.11,9.74
		C185.2,112,183.96,115.38,181.69,118.53z"/>
	<path class="st0" d="M167.03,102.16c-0.92-1.04-1.84-2.08-2.76-3.12c-0.28-0.48-0.65-0.87-1.12-1.18
		c-0.95-1.11-1.99-2.14-3.11-3.09c-0.35-0.54-0.85-0.9-1.4-1.2c-0.65-0.73-1.36-1.39-2.19-1.91c-4.05-3.49-8.53-6.34-13.47-8.88
		c0.61,1.15,1.08,2.06,1.56,2.96c1.21,2.56,1.9,5.29,2.72,7.97c0.64,4.19,0.76,8.39,0.27,12.6c-0.07,0.14-0.09,0.29-0.08,0.41
		c-0.53,2.73-1.35,5.39-2.18,8.04c-1.6,3.21-3.4,6.29-5.64,9.1c-1.8,1.77-3.59,3.53-5.39,5.3c-2.74,2.02-5.61,3.84-8.73,5.23
		c-2.51,0.92-5.09,1.6-7.7,2.19c-1.59,0.12-3.18,0.25-4.76,0.37c-1.14-0.01-2.27-0.01-3.41-0.02c-3.09-0.04-6.05-0.83-9.05-1.46
		c-1.33-0.54-2.66-1.08-3.98-1.61c-3.17-1.52-6.07-3.46-8.74-5.74c-0.14-0.24-0.29-0.47-0.59-0.53c-1.48-1.37-2.8-2.89-4.11-4.43
		c-2.16-2.53-3.65-5.48-5.18-8.4c-0.48-1.48-0.97-2.95-1.45-4.43c-0.03-0.28-0.03-0.56-0.09-0.83c-0.96-4.08-1.27-8.18-0.84-12.38
		c0.27-2.61,0.97-5.1,1.53-7.63c0.97-2.18,1.79-4.43,3.22-6.8c-2.08,1.17-3.95,1.97-5.55,3.24c-0.2,0.11-0.42,0.2-0.61,0.32
		c-5.48,3.41-10.38,7.54-14.78,12.23c-3.58,3.82-6.85,7.9-9.59,12.38c-0.52,0.61,0.14,0.93,0.38,1.29c1.96,2.96,4.09,5.8,6.41,8.49
		c5.22,6.08,11.13,11.35,17.95,15.58c0.19,0.12,0.38,0.24,0.56,0.36c1.14,0.88,2.39,1.57,3.69,2.18c2.78,1.64,5.66,3.07,8.75,4.04
		c0.86,0.6,1.85,0.84,2.84,1.08c3.11,1.08,6.27,1.98,9.56,2.33c0.73,0.41,1.57,0.25,2.33,0.48c1.49,0.06,2.96,0.47,4.46,0.37
		c2.08,0.38,4.18,0.28,6.28,0.21c1.7,0.11,3.39-0.18,5.08-0.28c1.08-0.19,2.2-0.07,3.25-0.43c0.07-0.02,0.13-0.04,0.2-0.07
		c2.98-0.22,5.84-1.04,8.71-1.78c1.32-0.45,2.72-0.69,3.97-1.35c3.1-0.99,6.06-2.29,8.87-3.92c4.37-2.13,8.37-4.83,12.11-7.93
		c1.63-1.18,3.2-2.42,4.55-3.92c1.46-1.09,2.7-2.4,3.89-3.77c0.21-0.06,0.32-0.2,0.33-0.42c1.31-1.08,2.32-2.44,3.38-3.74
		c0.31-0.17,0.55-0.4,0.58-0.78c1.09-1.05,1.9-2.31,2.79-3.52c0.65-0.94,1.3-1.87,1.95-2.81c0.44-0.65,1.26-1.11,0.53-2.14
		C171.26,107.61,169.31,104.76,167.03,102.16z M96.07,136.32C96.06,136.32,96.06,136.32,96.07,136.32
		C96.06,136.32,96.06,136.32,96.07,136.32C96.07,136.32,96.07,136.32,96.07,136.32z M96.07,136.32
		C96.07,136.32,96.07,136.32,96.07,136.32C96.07,136.32,96.07,136.31,96.07,136.32C96.07,136.31,96.07,136.32,96.07,136.32z
		 M104.57,144.87c-0.01-0.02-0.01-0.05-0.02-0.07c0,0,0,0,0,0l0,0c0,0,0,0,0,0c0,0,0,0,0-0.01c0.02,0,0.04,0,0.06,0
		C104.6,144.82,104.59,144.84,104.57,144.87z M108.8,140.56C108.8,140.56,108.8,140.56,108.8,140.56
		C108.8,140.56,108.8,140.56,108.8,140.56C108.8,140.56,108.8,140.56,108.8,140.56z M108.81,140.56
		C108.8,140.56,108.8,140.56,108.81,140.56C108.8,140.55,108.8,140.55,108.81,140.56C108.81,140.55,108.81,140.55,108.81,140.56z
		 M117.3,140.56C117.3,140.56,117.3,140.56,117.3,140.56C117.29,140.56,117.29,140.56,117.3,140.56c0-0.02,0-0.04,0-0.06
		c0.01,0.02,0.02,0.04,0.03,0.06C117.32,140.56,117.31,140.56,117.3,140.56z M130.03,140.56
		C130.03,140.56,130.03,140.56,130.03,140.56C130.03,140.56,130.03,140.56,130.03,140.56C130.03,140.56,130.03,140.56,130.03,140.56
		z M142.77,123.63c-0.01-0.01-0.02-0.02-0.03-0.03c0.01,0,0.02,0,0.03,0c0,0,0,0,0,0.01v0c0,0,0,0,0,0c0,0,0,0,0.01,0
		C142.77,123.62,142.77,123.63,142.77,123.63z M155.5,127.92c-0.02-0.02-0.03-0.05-0.04-0.07c0.01,0,0.03,0,0.04,0c0,0,0,0,0,0.01v0
		v0c0,0,0,0,0.01,0C155.5,127.87,155.5,127.89,155.5,127.92z"/>
</g>
</svg>
