<?xml version="1.0" encoding="utf-8"?>
<!-- Generator: Adobe Illustrator 24.1.0, SVG Export Plug-In . SVG Version: 6.00 Build 0)  -->
<svg version="1.1" id="Capa_1" xmlns="http://www.w3.org/2000/svg" xmlns:xlink="http://www.w3.org/1999/xlink" x="0px" y="0px"
	 viewBox="0 0 222 221" style="enable-background:new 0 0 222 221;" xml:space="preserve">
<style type="text/css">
	.st0{fill:#1B1464;}
</style>
<g>
	<polygon class="st0" points="53.57,112.71 53.57,112.71 53.57,112.71 53.57,112.71 53.57,112.71 	"/>
	<path class="st0" d="M110.58-0.19c-61.03,0-110.5,49.47-110.5,110.5c0,61.03,49.47,110.5,110.5,110.5s110.5-49.47,110.5-110.5
		C221.08,49.28,171.61-0.19,110.58-0.19z M153.18,119.88c1.14,0.1,2.27,0.21,3.4,0.18c0.54-0.02,0.71,0.3,0.74,0.74
		c0.07,0.83,0.15,1.69-0.01,2.5c-0.19,0.96-0.13,1.9-0.17,2.85c-0.01,0.23,0.1,0.5-0.14,0.69c-5.01,0-10.03,0-15.3,0
		c0.48-0.52,0.8-0.86,1.11-1.22c1.41-1.61,2.82-3.22,4.03-4.98c0.14-0.2,0.27-0.42,0.53-0.5
		C149.31,120.13,151.24,119.71,153.18,119.88z M157.35,142.35c-0.03,1.13-0.25,1.36-1.39,1.36c-3.22,0.01-6.44,0.06-9.66-0.03
		c-2.37-0.06-4.74,0.1-7.12,0c-7.06,0.03-14.12-0.01-21.17,0.02c-1.1,0-2.23,0.15-3.31-0.21c-0.27-0.42,0.08-0.54,0.35-0.65
		c0.39-0.16,0.82-0.22,1.25-0.19c0.37,0.02,0.69-0.13,0.99-0.33c1.15-0.31,2.25-0.75,3.31-1.28c2.65-1.03,5.2-2.27,7.61-3.78
		c0.35-0.6,0.93-0.78,1.56-0.82c0.65-0.04,1.29-0.04,1.94-0.02c2.66-0.08,5.33-0.03,7.99-0.03c5.3-0.01,10.59-0.01,15.89,0
		c1.59,0,1.76,0.18,1.77,1.76C157.37,139.56,157.38,140.96,157.35,142.35z M79.38,139.42c-2.33,1.49-4.85,2.61-7.35,3.78
		c-1.14,0.51-2.29,1-3.43,1.53c-5.05,2.07-10.19,3.87-15.58,4.88c-1.1,0.21-2.21,0.3-3.3,0.52c-1.2,0.03-2.4,0.23-3.6,0.24
		c-1.54,0.08-3.08-0.03-4.61-0.2c-2.58-0.27-4.79-1.29-6.52-3.26c-0.21-0.38-0.4-0.77-0.58-1.16c-0.24-0.8-0.5-1.6-0.37-2.45
		c0.29-2.13,1.56-3.55,3.35-4.59c0.49-0.29,0.99-0.48,1.56-0.49c3.41-1.2,6.06-3.41,8.26-6.21c1.41-1.79,2.49-3.76,2.99-6.01
		c0.1-0.45,0.07-0.79-0.31-1.15c-4.68-4.51-8.46-9.67-11.23-15.57c-0.02-0.05-0.08-0.09-0.12-0.14c-0.83-0.84-0.97-2.01-1.46-3.02
		c-0.17-0.36-0.3-0.73-0.44-1.1c-0.78-2.26-1.42-4.56-1.9-6.91c-0.35-1.77-0.52-3.56-0.71-5.34c-0.05-0.22-0.08-0.44-0.07-0.67
		c0.01-1.91-0.09-3.82,0-5.73c0.12-0.86,0.17-1.72,0.24-2.58c0.24-1.62,0.52-3.23,0.87-4.83c1.03-4.83,2.9-9.31,5.28-13.61
		c0.26-0.47,0.59-0.86,0.97-1.23c2.14-3.27,4.48-6.37,7.23-9.16c5.07-5.15,10.91-9.21,17.49-12.22c0.39-0.18,0.75-0.4,1.13-0.61
		c0.34-0.42,0.89-0.45,1.32-0.7c0.88-0.35,1.77-0.66,2.65-1c0.33-0.13,0.67-0.31,1.06-0.16c3.41-1.02,6.86-1.92,10.39-2.46
		c4.12-0.63,8.26-0.86,12.42-0.7c0.53,0.02,1.05,0.01,1.58,0.02c2.92,0.25,5.81,0.67,8.7,1.14c2.46,0.12,4.74,0.99,7.07,1.65
		c0.33,0.09,0.64,0.22,0.96,0.32c1.17,0.46,2.37,0.86,3.53,1.36c0.31,0.18,0.65,0.31,0.98,0.42c0.9,0.48,1.88,0.81,2.79,1.28
		c1.26,0.66,2.5,1.34,3.73,2.05c1.99,1.21,3.94,2.48,5.79,3.91c0.49,0.37,0.96,0.78,1.45,1.15c0.04,0.11,0.09,0.22,0.15,0.33
		c0.92,0.8,1.83,1.61,2.75,2.41c0.1,0.01,0.2,0.01,0.28,0c0.29,0.28,0.56,0.56,0.86,0.83c3.07,3.11,5.8,6.49,8.07,10.24
		c1.57,2.53,2.84,5.21,3.91,7.99c1.69,4.32,2.64,8.8,3.02,13.41c-0.04,1.57,0.36,3.12,0.19,4.69c-0.16,1.1-0.14,2.2-0.25,3.3
		c-0.26,2.16-0.57,4.31-1.07,6.44c-0.11,0.48-0.21,0.96-0.37,1.42c-0.36,1.26-0.77,2.5-1.2,3.73c-1.04,2.57-2.12,5.12-3.56,7.49
		c-1.33,2.24-2.81,4.38-4.47,6.4c-3.95,4.82-8.66,8.76-13.98,11.99c-0.53,0.32-1.06,0.65-1.61,0.94c-2.51,1.44-5.14,2.65-7.82,3.73
		c-1.06,0.39-2.11,0.81-3.19,1.18c-2.75,0.9-5.55,1.61-8.39,2.18c-0.81,0.15-1.62,0.3-2.43,0.43c-1.43,0.2-2.86,0.38-4.29,0.54
		c-1.13,0-2.24,0.2-3.36,0.23c-3.78,0.07-7.55,0.04-11.31-0.42c-1.11-0.22-2.25-0.32-3.36-0.57
		C79.9,139.28,79.65,139.25,79.38,139.42z M186.5,179.35c-0.71,1.09-1.73,1.82-2.86,2.42c-1.17,0.57-2.4,0.94-3.67,1.2
		c-2.32,0.47-4.66,0.63-7.02,0.57c-1.42-0.04-2.85-0.04-4.26-0.22c-1.05-0.16-2.11-0.22-3.15-0.43c-3.1-0.58-6.15-1.32-9.1-2.47
		c-2.1-0.82-4.14-1.77-6.09-2.91c-0.63-0.57-1.55-0.76-2.02-1.55c-1.22-0.99-2.49-1.92-3.59-3.06c-0.22-0.22-0.46-0.28-0.75-0.23
		c-6.47,0.93-12.94,0.77-19.42,0.11c-0.09-0.01-0.18,0.01-0.28,0.01c-3.47-0.54-6.95-1.06-10.35-2.01
		c-1.37-0.38-2.73-0.78-4.09-1.17c-2.05-0.31-3.86-1.3-5.75-2.08c-0.74-0.31-1.5-0.59-2.17-1.05c-2.54-1.32-5-2.74-7.27-4.5
		c-0.39-0.35-0.82-0.63-1.24-0.94c-0.84-0.8-1.72-1.55-2.64-2.25c-1.49-1.77-3.11-3.43-4.45-5.33c-1.27-1.87-2.47-3.77-3.31-5.88
		c-0.15-0.37-0.36-0.72-0.38-1.14c0.05-0.39,0.34-0.45,0.66-0.49c0.21-0.01,0.41,0.01,0.61,0.05c1.57,0.15,3.13,0.37,4.71,0.28
		c1.17-0.07,2.02,0.32,2.57,1.41c0.39,0.77,0.93,1.47,1.45,2.16c0.53,0.77,1.14,1.48,1.77,2.16c1.89,2.03,3.96,3.84,6.28,5.36
		c0.39,0.27,0.78,0.53,1.18,0.78c1.33,0.79,2.64,1.62,4.06,2.23c2.22,1.07,4.48,2.06,6.85,2.77c1.45,0.49,2.92,0.9,4.41,1.26
		c3.65,0.84,7.34,1.46,11.07,1.73c3.42,0.24,6.84,0.44,10.27,0.07c0.18-0.02,0.37-0.03,0.55-0.01c1.49-0.03,2.97-0.26,4.45-0.46
		c0.99-0.12,1.95-0.35,2.93-0.52c0.55-0.09,0.84,0.28,1.14,0.65c1.84,2.29,4.03,4.19,6.57,5.67c2.18,1.21,4.46,2.21,6.84,2.96
		c1.45,0.42,2.91,0.82,4.4,1.06c3.66,0.63,7.32,1.14,11.17,0.63c-1.28-0.79-2.52-1.48-3.7-2.25c-2.18-1.61-4.23-3.35-5.87-5.53
		c-1.56-1.92-2.08-4.24-2.54-6.58c-0.04-0.22,0-0.43,0.13-0.62c0.22-0.24,0.47-0.44,0.73-0.64c4.12-2.9,7.67-6.35,10.36-10.65
		c1.61-2.46,2.72-5.13,3.46-7.96c0.25-0.92,0.42-1.86,0.58-2.79c0.3-2.16,0.38-4.32,0.18-6.48c-0.05-0.2-0.08-0.41-0.09-0.62
		c-0.12-1.63-0.56-3.2-1-4.77c-0.73-2.53-1.92-4.85-3.31-7.08c-2.71-4.29-6.31-7.7-10.44-10.58c-2.34-1.54-4.73-2.97-7.3-4.12
		c-0.71-0.3-1.41-0.63-2.13-0.91c-0.69-0.26-0.97-0.69-0.73-1.43c0.58-1.76,0.87-3.59,1.18-5.41c0.33-0.55,0.78-0.3,1.21-0.18
		c2.69,1.11,5.37,2.26,7.88,3.74c3.73,2.13,7.18,4.64,10.22,7.68c1.99,1.99,3.92,4.05,5.43,6.46c0.15,0.23,0.33,0.45,0.32,0.76
		c2.04,3.31,3.71,6.78,4.69,10.56c1.64,6.32,1.38,12.57-0.6,18.77c-0.07,0.2-0.11,0.42-0.16,0.62c-0.1,1.42-0.88,2.6-1.4,3.86
		c-0.47,1.13-1.15,2.16-1.77,3.22c-1.63,2.56-3.39,5.02-5.59,7.14c-0.22,0.27-0.4,0.57-0.65,0.81c-0.94,0.66-1.65,1.58-2.56,2.28
		c-0.5,0.39-0.3,0.74,0,1.1c1.31,1.58,2.82,2.92,4.59,4c2.03,1.24,4.17,2.28,6.2,3.52c1.57,0.99,2.86,2.21,3.22,4.14
		C187.38,177.39,187.1,178.41,186.5,179.35z"/>
	<path class="st0" d="M90.79,133.37c3.97,0.21,7.91-0.16,11.81-0.84c3.75-0.65,7.43-1.57,10.95-3.05c2.39-0.82,4.67-1.88,6.84-3.17
		c1.4-0.66,2.7-1.48,3.95-2.4c2.81-1.8,5.36-3.9,7.63-6.34c-0.06-0.08-0.16-0.16-0.19-0.24c0.07,0.07,0.13,0.15,0.19,0.24
		c1.96-1.86,3.61-3.98,5.1-6.22c2.02-3.05,3.73-6.26,4.75-9.8c0.52-1.26,0.87-2.57,1.07-3.92c0.45-1.87,0.78-3.75,0.78-5.68
		c0.06-0.19,0.07-0.38,0.07-0.57c0.18-1.65,0.14-3.3-0.07-4.95c-0.06-2.46-0.48-4.86-1.15-7.22c-0.27-1.42-0.7-2.8-1.28-4.13
		c-0.83-2.49-1.96-4.83-3.36-7.04c-0.66-1.3-1.47-2.49-2.39-3.62c0.01-0.06-0.01-0.09-0.07-0.1c-3.06-4.27-6.78-7.85-11.13-10.8
		c-0.14-0.12-0.27-0.25-0.42-0.35c-5.4-3.69-11.3-6.25-17.65-7.83c-1.34-0.33-2.69-0.54-4.05-0.78c-1.36-0.33-2.74-0.49-4.13-0.55
		c-0.97-0.19-1.95-0.22-2.93-0.2c-1.45-0.2-2.9-0.13-4.35-0.09c-2.69,0.08-5.37,0.27-8.01,0.84c-1.06,0.1-2.11,0.29-3.13,0.6
		c-2.69,0.53-5.3,1.33-7.82,2.39c-3.79,1.37-7.33,3.21-10.62,5.54c-2.53,1.54-4.76,3.45-6.88,5.5c-2.9,2.81-5.48,5.89-7.47,9.43
		c-1.48,2.34-2.7,4.8-3.54,7.44h0c-0.09,0.19-0.2,0.38-0.27,0.58c-1.86,5.4-2.58,10.95-2.09,16.63c0.26,3.02,0.72,6.01,1.8,8.87
		c0.29,1.29,0.76,2.52,1.34,3.71c1.08,2.79,2.52,5.39,4.27,7.81c0.37,0.68,0.83,1.29,1.34,1.86c2.06,2.87,4.58,5.32,7.25,7.61
		c0.45,0.39,0.66,0.77,0.53,1.33c-0.64,2.34-0.9,4.79-1.87,7.04c-1.37,2.96-3.23,5.57-5.56,7.85c-0.07,0.06-0.13,0.12-0.2,0.18
		c-1.86,1.55-3.86,2.91-6.21,4.14c1.46,0.37,2.7,0.42,3.93,0.22c0.11-0.01,0.22-0.03,0.33-0.06c1.94-0.07,3.82-0.45,5.68-0.96
		c1.41-0.24,2.77-0.63,4.11-1.11c2.42-0.64,4.75-1.53,7.06-2.47c1.28-0.44,2.54-0.93,3.74-1.57c2.51-1.01,4.98-2.1,7.25-3.57
		c0.7-0.39,1.42-0.74,2.1-1.17c0.57-0.37,1.13-0.6,1.8-0.33c1.2,0.45,2.45,0.67,3.72,0.75c1.22,0.28,2.46,0.41,3.71,0.39
		C88.3,133.45,89.54,133.41,90.79,133.37z M124.27,75.44c0.01,0.01,0.01,0.03,0.02,0.04c0,0,0,0,0,0c0,0,0,0,0,0
		c-0.01,0-0.02,0-0.03,0C124.26,75.47,124.27,75.45,124.27,75.44z M53.57,112.72c0,0-0.01-0.01-0.01-0.01c0,0,0.01,0,0.01,0
		c0,0,0-0.01,0-0.01c0.01,0,0.01,0.01,0.02,0.02c-0.01,0-0.01,0-0.02,0C53.57,112.71,53.57,112.72,53.57,112.72z M98.24,127.6
		C98.24,127.6,98.24,127.6,98.24,127.6C98.24,127.6,98.23,127.6,98.24,127.6C98.23,127.6,98.24,127.6,98.24,127.6
		C98.24,127.59,98.24,127.59,98.24,127.6C98.24,127.59,98.24,127.59,98.24,127.6C98.24,127.6,98.24,127.6,98.24,127.6z
		 M120.34,83.88c-0.16,1.33-0.05,2.66-0.07,3.99c-0.03,2.11,0.17,2.01-2.04,2.01c-17.48,0-34.95,0-52.43,0.01
		c-0.58,0-1.18-0.1-1.73,0.2c0.01,0.02,0.02,0.05,0.03,0.07c-0.03-0.01-0.06-0.03-0.09-0.04c0.06-1.16,0.08-2.31-0.01-3.47
		c0.1-0.97,0.08-1.93,0.01-2.9c0.34-0.22,0.72-0.15,1.09-0.15c15.89,0,31.78-0.01,47.67,0.01c2.55,0,5.11-0.11,7.66,0.06
		C120.4,83.73,120.36,83.8,120.34,83.88z M113.13,79.2C113.13,79.2,113.13,79.2,113.13,79.2C113.13,79.2,113.13,79.2,113.13,79.2
		C113.13,79.2,113.13,79.2,113.13,79.2z M113.13,79.2C113.13,79.2,113.13,79.2,113.13,79.2C113.13,79.21,113.13,79.21,113.13,79.2
		C113.13,79.21,113.13,79.21,113.13,79.2z M120.59,83.53c0-0.01,0-0.03,0-0.04c0.01,0.01,0.01,0.02,0.02,0.03
		C120.6,83.52,120.59,83.52,120.59,83.53z M64.01,68.1c0,0,0.01,0,0.01,0c0.28-0.77,0.88-0.91,1.63-0.9
		c1.76,0.03,3.53,0.01,5.29,0.01c0.43,0,0.87,0.04,1.26-0.22c0.01-0.01,0.01-0.02,0.02-0.03c0.34,0.31,0.78,0.27,1.19,0.27
		c2.94,0.01,5.87,0.01,8.81,0c0.4,0,0.81,0.01,1.16-0.24c0.01-0.02,0.02-0.04,0.03-0.06c1.22,0,2.45,0,3.67,0c3.72,0,7.45,0,11.17,0
		c1.24,0,2.48,0,3.72,0c3.72,0,7.45,0,11.17,0c1.24,0,2.48,0,3.72,0c1.22,0.02,2.44,0.03,3.65,0.05c0.02,1.85,0,3.7,0.09,5.55
		c0.04,0.89-0.19,1.12-1.1,1.12c-12.15-0.02-24.3-0.02-36.45-0.02c-0.13-0.04-0.28-0.07-0.45-0.07c-0.68,0-1.36,0.01-2.05-0.01
		c-0.22-0.01-0.41,0.02-0.58,0.07c-1.48,0-2.96,0-4.44,0c-0.28-0.09-0.62-0.09-0.98-0.07c-0.53,0.03-1.05,0.01-1.58,0.01
		c-0.17,0-0.33,0.02-0.47,0.07c-1.45,0-2.9,0-4.35,0c-0.11-0.03-0.22-0.05-0.35-0.05c-0.84-0.02-1.67-0.03-2.51,0.01
		c-0.17,0.01-0.32,0.05-0.45,0.11c-0.19-0.01-0.38-0.05-0.53-0.13c-0.61-0.34-0.08-1.19-0.31-1.79C64.1,70.54,64.1,69.32,64.01,68.1
		z M77.13,106.64c-0.42,0-0.86-0.04-1.21,0.27c-0.01-0.02-0.02-0.04-0.03-0.05c-0.36-0.23-0.76-0.22-1.16-0.22
		c-2.96-0.01-5.91-0.01-8.87,0c-0.37,0-0.74,0-1.08,0.19c-0.04,0.03-0.07,0.06-0.1,0.1c-0.47-0.03-0.71-0.23-0.63-0.77
		c0.04-0.29-0.03-0.6-0.04-0.89c0.09-1.24,0.09-2.48,0-3.72c0.09-0.35,0.08-0.71,0.01-1.07c0.09-0.07,0.17-0.14,0.24-0.22
		c0.29-0.16,0.65-0.03,0.96-0.03c7.46-0.02,14.92-0.01,22.38-0.01c3.63,0,7.27,0.01,10.9,0c0.14,0.06,0.31,0.09,0.52,0.09
		c0.65,0,1.3,0.01,1.94,0c0.38-0.01,0.64-0.03,0.82-0.1c0.44,0,0.89,0,1.33-0.01c0.71,0,0.96,0.2,0.85,0.88
		c-0.02,0.13,0.01,0.28,0.03,0.42c-0.03,0.02-0.06,0.05-0.08,0.08c-0.39,1.14-0.15,2.32-0.18,3.48c-0.04,1.57-0.02,1.58-1.62,1.58
		c-2.1,0-4.19,0-6.29,0c-0.46,0-0.93-0.05-1.33,0.25c-0.35-0.29-0.78-0.26-1.19-0.26C87.9,106.63,82.52,106.63,77.13,106.64z"/>
	<polygon class="st0" points="98.24,127.6 98.24,127.6 98.24,127.6 98.24,127.6 	"/>
</g>
</svg>
